# xmcd CD database file
#
# Track frame offsets:
#	150
#	15129
#	28995
#	45752
#	58121
#	68766
#	84938
#	98189
#	111725
#	124030
#	137751
#	151497
#
# Disc length: 2203 seconds
#
# Revision: 0
# Processed by: cddbd v1.5.2PL0 Copyright (c) Steve Scherf et al.
# Submitted via: CDex 1.51
#
DISCID=9608990c
DTITLE=Permanent Me - After the Room Clears
DYEAR=2006
DGENRE=Salsa
TTITLE0=Until You Leave
TTITLE1=Allison
TTITLE2=Heartattack
TTITLE3=4 a.m.
TTITLE4=Christine
TTITLE5=Blackjaw
TTITLE6=By the Time
TTITLE7=Later on
TTITLE8=Friday Night
TTITLE9=Dead to You
TTITLE10=NYC
TTITLE11=20 Years
EXTD=YEAR: 2006
EXTT0=
EXTT1=
EXTT2=
EXTT3=
EXTT4=
EXTT5=
EXTT6=
EXTT7=
EXTT8=
EXTT9=
EXTT10=
EXTT11=
PLAYORDER=
